<svg xmlns="http://www.w3.org/2000/svg" viewBox="0 0 64 64">
  <defs>
    <linearGradient id="grad" x1="0%" y1="0%" x2="100%" y2="100%">
      <stop offset="0%" style="stop-color:#2563eb"/>
      <stop offset="100%" style="stop-color:#06b6d4"/>
    </linearGradient>
  </defs>
  <circle cx="32" cy="32" r="30" fill="url(#grad)"/>
  <path d="M32 12C26.5 12 22.5 15 21 19C19.5 17 17 16 14.5 16C11 16 8 19 8 24C8 30 12 34 12 40C12 48 14 56 20 56C25 56 26 52 32 52C38 52 39 56 44 56C50 56 52 48 52 40C52 34 56 30 56 24C56 19 53 16 49.5 16C47 16 44.5 17 43 19C41.5 15 37.5 12 32 12Z" fill="white"/>
</svg>
